<svg width="345" height="112" xmlns="http://www.w3.org/2000/svg">
 <g>
  <title>background</title>
  <rect x="-1" y="-1" width="347" height="114" id="canvas_background" fill="none"/>
  <g id="canvasGrid" display="none">
   <rect id="svg_1" width="577" height="400" x="1" y="1" stroke-width="0" fill="url(#gridpattern)"/>
  </g>
 </g>
 <g>
  <title>Layer 1</title>
  <defs>
   <clipPath clipPathUnits="userSpaceOnUse" id="svg_28">
    <rect id="svg_29" width="68.688263" height="67.886459" x="-74.033661" y="141.44913" stroke-dashoffset="0" stroke-miterlimit="4" stroke-linejoin="round" fill-rule="nonzero" fill="#000000"/>
   </clipPath>
   <filter height="200%" width="200%" y="-50%" x="-50%" id="svg_2_blur">
    <feGaussianBlur stdDeviation="0" in="SourceGraphic"/>
   </filter>
  </defs>
  <metadata id="svg_27">image/svg+xmlPDF file icon08/10/2018Adobe SystemsCMetalCoreFuente del texto "PDF":
Franklin Gothic Medium Cond</metadata>
  <g stroke="null" id="svg_31">
   <g stroke="null" id="svg_17" transform="matrix(1.0667376758050322,0,0,1.0888443908571226,112.238635020415,106.18362484844128) ">
    <g stroke="null" id="svg_18" transform="matrix(1.4843054,0,0,1.4843054,17.471885,-90.243502) ">
     <g stroke="null" id="svg_19">
      <path stroke="null" d="m-76.213893,-2.639919c-3.55197,0 -6.44336,2.89347 -6.44336,6.44531l0,49.49804c0,3.55185 2.89139,6.44532 6.44336,6.44532l37.84961,0c3.55196,0 6.44336,-2.89335 6.44336,-6.44532l0,-40.70117c0,0 0.10135,-1.19181 -0.41602,-2.35156c-0.48497,-1.08711 -1.27539,-1.84375 -1.27539,-1.84375a1.05844,1.05844 0 0 0 -0.0059,-0.008l-9.39063,-9.21094a1.05844,1.05844 0 0 0 -0.01562,-0.0156c0,0 -0.80174,-0.76344 -1.99023,-1.27344c-1.3994,-0.6005 -2.8418,-0.53711 -2.8418,-0.53711l0.02148,-0.002l-28.37886,0.00022z" id="svg_26" stroke-dashoffset="0" stroke-miterlimit="4" stroke-linejoin="round" stroke-linecap="round" stroke-width="2.116667" fill-rule="nonzero" fill="#ff2116" clip-rule="nonzero"/>
      <path stroke="null" d="m-76.213893,-0.522739l28.3789,0a1.05844,1.05844 0 0 0 0.02149,0c0,0 1.1348,0.011 1.96484,0.36719c0.7989,0.34282 1.36537,0.86176 1.36914,0.86524c0.00001,0.00001 0.00391,0.004 0.00391,0.004l9.36719,9.18945c0,0 0.56435,0.59582 0.83789,1.20899c0.22078,0.49491 0.23437,1.40039 0.23437,1.40039a1.05844,1.05844 0 0 0 -0.002,0.0449l0,40.74609c0,2.41592 -1.91025,4.32813 -4.32617,4.32813l-37.84956,0c-2.41592,0 -4.32617,-1.91209 -4.32617,-4.32813l0,-49.49804c0,-2.41603 1.91025,-4.32813 4.32617,-4.32813l0,-0.00008z" id="svg_25" stroke-dashoffset="0" stroke-miterlimit="4" stroke-linejoin="round" stroke-linecap="round" stroke-width="2.116667" fill-rule="nonzero" fill="#f5f5f5" clip-rule="nonzero"/>
      <path stroke="null" d="m-69.988743,34.505801c-1.45669,-1.45669 0.11934,-3.45839 4.39648,-5.58397l2.69124,-1.33743l1.04845,-2.29399c0.57665,-1.26169 1.43729,-3.32036 1.91254,-4.5748l0.8641,-2.28082l-0.59546,-1.68793c-0.73217,-2.07547 -0.99326,-5.19438 -0.52872,-6.31588c0.62923,-1.51909 2.69029,-1.36323 3.50626,0.26515c0.63727,1.27176 0.57212,3.57488 -0.18329,6.47946l-0.6193,2.38125l0.5455,0.92604c0.30003,0.50932 1.1764,1.71867 1.9475,2.68743l1.44924,1.80272l1.80337,-0.23533c5.72901,-0.74758 7.69125,0.523 7.69125,2.34476c0,2.29921 -4.49849,2.48899 -8.27609,-0.16423c-0.84996,-0.59698 -1.43366,-1.19001 -1.43366,-1.19001c0,0 -2.36653,0.48178 -3.5317,0.79583c-1.20271,0.32417 -1.80274,0.52719 -3.56451,1.12186c0,0 -0.61814,0.89767 -1.02094,1.55026c-1.49858,2.4279 -3.24833,4.43998 -4.49793,5.1723c-1.3991,0.81993 -2.86584,0.87582 -3.60433,0.13733zm2.28605,-0.81668c0.81883,-0.50607 2.47616,-2.46625 3.62341,-4.28553l0.46449,-0.73658l-2.11497,1.06339c-3.26655,1.64239 -4.76093,3.19033 -3.98386,4.12664c0.43653,0.52598 0.95874,0.48237 2.01093,-0.16792zm21.21809,-5.95578c0.80089,-0.56097 0.68463,-1.69142 -0.22082,-2.1472c-0.70466,-0.35471 -1.27261,-0.42759 -3.10316,-0.40057c-1.1249,0.0767 -2.93376,0.3034 -3.24033,0.37237c0,0 0.99371,0.68678 1.43489,0.93922c0.58731,0.33544 2.01452,0.95811 3.05652,1.27706c1.02785,0.31461 1.6224,0.28144 2.0729,-0.0409l0,0.00002zm-8.53152,-3.54594c-0.4847,-0.50952 -1.30889,-1.57296 -1.83152,-2.3632c-0.68353,-0.89643 -1.02629,-1.52887 -1.02629,-1.52887c0,0 -0.4996,1.60694 -0.90948,2.57394l-1.27876,3.16076l-0.37075,0.71695c0,0 1.97104,-0.64627 2.97389,-0.90822c1.06217,-0.27744 3.21787,-0.70134 3.21787,-0.70134l-0.77496,-0.95002zm-2.74938,-11.02573c0.12363,-1.0375 0.1761,-2.07346 -0.15724,-2.59587c-0.9246,-1.01077 -2.04057,-0.16787 -1.85154,2.23517c0.0636,0.8084 0.26443,2.19033 0.53292,3.04209l0.48817,1.54863l0.34358,-1.16638c0.18897,-0.64151 0.47882,-2.02015 0.64411,-3.06364z" id="svg_24" stroke-width="0.264583" fill="#ff2116"/>
      <g stroke="null" id="svg_20">
       <path stroke="null" id="svg_23" d="m-67.511503,41.251431l2.36498,0q1.13352,0 1.84022,0.2169q0.70669,0.20991 1.18948,0.9446q0.4828,0.72769 0.4828,1.75625q0,0.94459 -0.39183,1.6233q-0.39184,0.67871 -1.05655,0.97958q-0.65772,0.30087 -2.02913,0.30087l-0.81865,0l0,3.72941l-1.58132,0l0,-9.55091zm1.58132,1.22447l0,3.33058l0.78366,0q1.04955,0 1.44838,-0.39184q0.40583,-0.39183 0.40583,-1.27345q0,-0.65772 -0.26589,-1.06355q-0.26588,-0.41282 -0.58774,-0.50378q-0.31487,-0.098 -1.00058,-0.098l-0.78366,0.00004z" stroke-width="0.358247px" fill="#2c2c2c"/>
       <path stroke="null" id="svg_22" d="m-60.423543,41.251431l2.14808,0q1.56033,0 2.49093,0.55276q0.9376,0.55276 1.4134,1.6443q0.48279,1.09153 0.48279,2.42096q0,1.3994 -0.43381,2.49793q-0.42682,1.09153 -1.31544,1.76324q-0.88162,0.67172 -2.51892,0.67172l-2.26703,0l0,-9.55091zm1.58133,1.26645l0,7.018l0.65771,0q1.37841,0 2.00114,-0.9516q0.62274,-0.95858 0.62274,-2.5539q0,-3.5125 -2.62388,-3.5125l-0.65771,0z" stroke-width="0.358247px" fill="#2c2c2c"/>
       <path stroke="null" id="svg_21" d="m-52.369993,41.251431l5.30373,0l0,1.26645l-3.7224,0l0,2.85478l2.98072,0l0,1.26646l-2.98072,0l0,4.16322l-1.58133,0l0,-9.55091z" stroke-width="0.358247px" fill="#2c2c2c"/>
      </g>
     </g>
    </g>
   </g>
  </g>
  <g id="svg_123" stroke="null">
   <g id="svg_114" fill="none" fill-rule="evenodd" transform="matrix(1.3311120296886898,0,0,1.4111117608881583,149.85142780464747,272.01496246982197) " stroke="null">
    <g id="svg_115" fill-rule="nonzero" stroke="null">
     <path id="svg_120" d="m132.679258,-178.621372l0,46c0,2.20914 -1.79086,4 -4,4l-36,0c-2.20914,0 -4,-1.79086 -4,-4l0,-37l9,0c2.20914,0 4,-1.79086 4,-4l0,-9l27,0c2.20914,0 4,1.79086 4,4z" fill="#e8edfc" stroke="null"/>
     <path id="svg_116" d="m128.679258,-182.621372l-3,0c2.20914,0 4,1.79086 4,4l0,46c0,2.20914 -1.79086,4 -4,4l3,0c2.20914,0 4,-1.79086 4,-4l0,-46c0,-2.20914 -1.79086,-4 -4,-4z" fill="#cad9fc" stroke="null"/>
     <path id="Shape" d="m136.679258,-174.621372l0,46c0,2.20914 -1.79086,4 -4,4l-36,0c-2.20914,0 -4,-1.79086 -4,-4l36,0c2.20914,0 4,-1.79086 4,-4l0,-46c2.20914,0 4,1.79086 4,4z" fill="#a4c2f7" stroke="null"/>
     <path id="Shape" d="m101.679258,-182.621372l0,9c0,2.20914 -1.79086,4 -4,4l-9,0l13,-13z" fill="#cad9fc" stroke="null"/>
     <path id="Shape" d="m125.679258,-160.621372l0,7c-5.62,0.38 -10.51,2.64 -13.51,5.93c-0.56818,-0.69501 -1.20101,-1.33454 -1.89,-1.91c-3.9124,-3.09571 -8.78219,-4.72958 -13.77,-4.62c-0.28,0 -0.55,0.01 -0.83,0.02l0,-6.42c0,-2.20914 1.79086,-4 4,-4l22,0c2.20914,0 4,1.79086 4,4z" fill="#a4c2f7" stroke="null"/>
     <path id="Shape" d="m121.679258,-164.621372l-3,0c2.20914,0 4,1.79086 4,4l0,7c-4.34013,0.21864 -8.50631,1.7748 -11.927,4.455c0.50834,0.45576 0.98199,0.94879 1.417,1.475c3,-3.29 7.89,-5.55 13.51,-5.93l0,-7c0,-2.20914 -1.79086,-4 -4,-4z" fill="#7facfa" stroke="null"/>
     <path id="Shape" d="m114.849258,-140.621372l-15.17,0c-2.20914,0 -4,-1.79086 -4,-4l0,-9.58c0.28,-0.01 0.55,-0.02 0.83,-0.02c4.98781,-0.10958 9.8576,1.52429 13.77,4.62c0.68899,0.57546 1.32182,1.21499 1.89,1.91c1.69824,1.96741 2.64735,4.47122 2.68,7.07z" fill="#e8edfc" stroke="null"/>
     <path id="Shape" d="m112.169258,-147.691372c-0.56818,-0.69501 -1.20102,-1.33454 -1.89,-1.91c-3.9124,-3.09571 -8.78219,-4.72958 -13.77,-4.62c-0.28,0 -0.55,0.01 -0.83,0.02l0,0.08c4.23721,0.2881 8.28494,1.86531 11.6,4.52c0.68898,0.57546 1.32182,1.21499 1.89,1.91c1.69824,1.9674 2.64735,4.47122 2.68,7.07l3,0c-0.03265,-2.59878 -0.98176,-5.1026 -2.68,-7.07z" fill="#cad9fc" stroke="null"/>
     <path id="Shape" d="m125.679258,-153.621372l0,9c0,2.20914 -1.79086,4 -4,4l-6.83,0c-0.03265,-2.59878 -0.98176,-5.1026 -2.68,-7.07c3,-3.29 7.89,-5.55 13.51,-5.93z" fill="#e8edfc" stroke="null"/>
     <path id="Shape" d="m122.679258,-153.207372l0,8.586c0,2.20914 -1.79086,4 -4,4l3,0c2.20914,0 4,-1.79086 4,-4l0,-9c-1.00773,0.07463 -2.00973,0.2129 -3,0.414z" fill="#cad9fc" stroke="null"/>
     <circle id="svg_119" cx="114.179258" cy="-158.121375" fill="#e8edfc" r="2.5" stroke="null"/>
     <path id="Shape" d="m114.179258,-160.621372c-0.5424,0.00185 -1.06927,0.18134 -1.5,0.511c0.62917,0.46751 1.00004,1.20514 1.00004,1.989s-0.37087,1.52148 -1.00004,1.989c0.86861,0.66138 2.06594,0.68263 2.95748,0.05248c0.89153,-0.63015 1.27105,-1.76593 0.93744,-2.80546c-0.33361,-1.03953 -1.30319,-1.74236 -2.39492,-1.73602z" fill="#cad9fc" stroke="null"/>
     <path id="Shape" d="m92.679258,-128.621372c0,2.20914 1.79086,4 4,4l3,0c-2.20914,0 -4,-1.79086 -4,-4c-2.20914,0 -4,-1.79086 -4,-4l0,-37l13,-13l-3,0l-13,13l0,37c0,2.20914 1.79086,4 4,4z" fill="#fff" stroke="null"/>
     <path id="svg_118" d="m87.679258,-140.621372l2,0l0,8l-2,0l0,-8z" fill="#fff" stroke="null"/>
     <g fill="#428dff" id="svg_122" stroke="null">
      <circle id="svg_117" cx="88.679258" cy="-136.621375" r="1" stroke="null"/>
      <path id="Shape" d="m91.771258,-127.713372c0.43727,2.36785 2.50011,4.08773 4.908,4.092l36,0c2.76005,-0.00331 4.99669,-2.23995 5,-5l0,-46c-0.00427,-2.40789 -1.72415,-4.47073 -4.092,-4.908c-0.43727,-2.36786 -2.50011,-4.08773 -4.908,-4.092l-27,0c-0.2652,0.00005 -0.51951,0.10545 -0.707,0.293l-13,13c-0.18755,0.18749 -0.29294,0.4418 -0.293,0.707l0,29c0,0.55228 0.44771,1 1,1s1,-0.44772 1,-1l0,-28l8,0c2.76005,-0.00331 4.99669,-2.23995 5,-5l0,-8l26,0c1.65685,0 3,1.34314 3,3l0,46c0,1.65685 -1.34315,3 -3,3l-36,0c-1.65685,0 -3,-1.34315 -3,-3c0,-0.55229 -0.44772,-1 -1,-1s-1,0.44771 -1,1c0.00427,2.40788 1.72415,4.47073 4.092,4.908zm5.908,-42.908l-6.586,0l9.586,-9.586l0,6.586c0,1.65685 -1.34315,3 -3,3zm36,38l0,-44.816c1.19435,0.42225 1.99475,1.54921 2,2.816l0,46c0,1.65685 -1.34315,3 -3,3l-36,0c-1.26679,-0.00525 -2.39375,-0.80565 -2.816,-2l34.816,0c2.76005,-0.00331 4.99669,-2.23995 5,-5z" stroke="null"/>
      <path id="Shape" d="m122.679258,-177.621372c0.55229,0 1,-0.44772 1,-1s-0.44771,-1 -1,-1l-6,0c-0.55228,0 -1,0.44771 -1,1s0.44772,1 1,1l6,0z" stroke="null"/>
      <path id="Shape" d="m129.679258,-178.621372c0,-0.55229 -0.44771,-1 -1,-1l-2,0c-0.55228,0 -1,0.44771 -1,1s0.44772,1 1,1l2,0c0.55229,0 1,-0.44772 1,-1z" stroke="null"/>
      <path id="Shape" d="m93.679258,-134.621372c-0.55228,0 -1,0.44771 -1,1s0.44772,1 1,1l1,0c0.55229,0 1,-0.44772 1,-1s-0.44771,-1 -1,-1l-1,0z" stroke="null"/>
      <path id="Shape" d="m118.679258,-134.621372c-0.55228,0 -1,0.44771 -1,1s0.44772,1 1,1l9,0c0.55229,0 1,-0.44772 1,-1s-0.44771,-1 -1,-1l-9,0z" stroke="null"/>
      <path id="Shape" d="m98.679258,-134.621372c-0.55228,0 -1,0.44771 -1,1s0.44772,1 1,1l15,0c0.55229,0 1,-0.44772 1,-1s-0.44771,-1 -1,-1l-15,0z" stroke="null"/>
      <path id="Shape" d="m94.679258,-160.621372l0,16c0.00331,2.76005 2.23995,4.99669 5,5l22,0c2.76005,-0.00331 4.99669,-2.23995 5,-5l0,-16c-0.00331,-2.76006 -2.23995,-4.9967 -5,-5l-22,0c-2.76005,0.0033 -4.99669,2.23994 -5,5zm2,16l0,-8.593c4.69325,-0.06739 9.26719,1.47961 12.956,4.382c2.26328,1.77685 3.75031,4.36131 4.149,7.211l-14.105,0c-1.65685,0 -3,-1.34315 -3,-3zm25,3l-5.893,0c-0.21389,-2.15856 -1.00643,-4.21936 -2.294,-5.965c3.08825,-2.82306 7.01916,-4.55221 11.187,-4.921l0,7.886c0,1.65685 -1.34315,3 -3,3zm3,-19l0,6.1c-4.63141,0.38311 -9.00942,2.27441 -12.463,5.384c-0.40739,-0.43283 -0.83874,-0.84247 -1.292,-1.227c-4.05061,-3.20431 -9.08064,-4.91689 -14.245,-4.85l0,-5.407c0,-1.65686 1.34315,-3 3,-3l22,0c1.65685,0 3,1.34314 3,3z" stroke="null"/>
      <path id="Shape" d="m114.179258,-154.621372c1.41562,0 2.69185,-0.85275 3.23358,-2.16061s0.24229,-2.81327 -0.75871,-3.81427s-2.5064,-1.30044 -3.81426,-0.7587s-2.16061,1.81796 -2.16061,3.23358c0,1.93299 1.567,3.5 3.5,3.5zm0,-5c0.82843,0 1.5,0.67157 1.5,1.5s-0.67157,1.5 -1.5,1.5s-1.5,-0.67158 -1.5,-1.5s0.67157,-1.5 1.5,-1.5z" stroke="null"/>
     </g>
    </g>
   </g>
  </g>
  <g id="svg_106" stroke="null">
   <g id="svg_105" fill="none" fill-rule="evenodd" transform="matrix(1.3827155978620698,0,0,1.5091520371582472,148.97217494016257,261.1188570300967) " stroke="null">
    <g id="svg_104" fill-rule="nonzero" stroke="null">
     <path id="svg_91" d="m70.891144,-162.084161c2.20914,0 4,1.79086 4,4l0,46c0,2.20914 -1.79086,4 -4,4l-36,0c-2.20914,0 -4,-1.79086 -4,-4l40,-50z" fill="#90bae1" stroke="null"/>
     <path id="svg_92" d="m39.891144,-166.084161l27,0c2.20914,0 4,1.79086 4,4l0,46c0,2.20914 -1.79086,4 -4,4l-36,0c-2.20914,0 -4,-1.79086 -4,-4l0,-37l13,-13z" fill="#b0d3f0" stroke="null"/>
     <path id="svg_93" d="m60.891144,-161.084161l-6,0c-0.55228,0 -1,-0.44772 -1,-1s0.44772,-1 1,-1l6,0c0.55228,0 1,0.44772 1,1s-0.44772,1 -1,1z" fill="#ecf0f1" stroke="null"/>
     <path id="svg_94" d="m66.891144,-161.084161l-2,0c-0.55228,0 -1,-0.44772 -1,-1s0.44772,-1 1,-1l2,0c0.55228,0 1,0.44772 1,1s-0.44772,1 -1,1z" fill="#ecf0f1" stroke="null"/>
     <path id="svg_95" d="m39.891144,-166.084161l0,9c0,2.20914 -1.79086,4 -4,4l-9,0l13,-13z" fill="#90bae1" stroke="null"/>
     <g fill="#2980ba" id="svg_99" stroke="null">
      <path id="svg_96" d="m32.891144,-116.084161l-1,0c-0.55228,0 -1,-0.44772 -1,-1s0.44772,-1 1,-1l1,0c0.55228,0 1,0.44772 1,1s-0.44772,1 -1,1z" stroke="null"/>
      <path id="svg_97" d="m65.891144,-116.084161l-9,0c-0.55228,0 -1,-0.44772 -1,-1s0.44772,-1 1,-1l9,0c0.55228,0 1,0.44772 1,1s-0.44772,1 -1,1z" stroke="null"/>
      <path id="svg_98" d="m51.891144,-116.084161l-15,0c-0.55228,0 -1,-0.44772 -1,-1s0.44772,-1 1,-1l15,0c0.55228,0 1,0.44772 1,1s-0.44772,1 -1,1z" stroke="null"/>
     </g>
     <rect id="svg_100" fill="#2fa8cc" height="24" rx="4" width="30" x="33.891148" y="-148.084158" stroke="null"/>
     <circle id="svg_101" cx="52.391148" cy="-141.584158" fill="#f0c419" r="2.5" stroke="null"/>
     <path id="svg_102" d="m63.891144,-137.084161l0,9c0,2.20914 -1.79086,4 -4,4l-6.83,0c-0.03265,-2.59878 -0.98176,-5.10259 -2.68,-7.07c3,-3.29 7.89,-5.55 13.51,-5.93z" fill="#26b99a" stroke="null"/>
     <path id="svg_103" d="m53.061144,-124.084161l-15.17,0c-2.20914,0 -4,-1.79086 -4,-4l0,-9.58c0.28,-0.01 0.55,-0.02 0.83,-0.02c4.98781,-0.10958 9.8576,1.5243 13.77,4.62c0.68899,0.57546 1.32182,1.215 1.89,1.91c1.69824,1.96741 2.64735,4.47122 2.68,7.07z" fill="#65ddb9" stroke="null"/>
    </g>
   </g>
  </g>
  <g stroke="null" id="svg_146">
   <path stroke="null" d="m128.33993,53.238217c0,0.424401 -0.130727,0.848812 -0.370992,1.167113l-10.916804,15.919115c-0.392979,0.573261 -1.047822,0.9553 -1.812201,0.9553l-6.549998,0c-1.200536,0 -2.183193,-0.9553 -2.183193,-2.122413c0,-0.424798 0.131126,-0.849199 0.370992,-1.16751l10.108838,-14.751605l-10.108838,-14.752002c-0.239866,-0.318301 -0.370992,-0.742712 -0.370992,-1.167113c0,-1.16751 0.982657,-2.12281 2.183193,-2.12281l6.549998,0c0.76438,0 1.419222,0.382049 1.812201,0.9553l10.916804,15.919115c0.240264,0.318311 0.370992,0.742712 0.370992,1.16751zm0,0" fill="#42a5f5" id="svg_144"/>
   <path stroke="null" d="m150.173527,53.238217c0,0.424401 -0.131126,0.848812 -0.371401,1.167113l-10.916395,15.919115c-0.392979,0.573261 -1.04822,0.9553 -1.812201,0.9553l-6.549998,0c-1.200945,0 -2.183602,-0.9553 -2.183602,-2.122413c0,-0.424798 0.131126,-0.849199 0.371401,-1.16751l10.108838,-14.751605l-10.108838,-14.752002c-0.240275,-0.318301 -0.371401,-0.742712 -0.371401,-1.167113c0,-1.16751 0.982667,-2.12281 2.183602,-2.12281l6.549998,0c0.763981,0 1.419222,0.382049 1.812201,0.9553l10.916395,15.919115c0.240275,0.318311 0.371401,0.742712 0.371401,1.16751zm0,0" fill="#2196f3" id="svg_145"/>
  </g>
  <rect filter="url(#svg_2_blur)" rx="25" stroke-dasharray="5,5" id="svg_2" height="110" width="167" y="0.75" x="177.5859" stroke-width="1.5" stroke="#000" fill="none"/>
 </g>
</svg>